<svg width="252" height="52" viewBox="0 0 252 52" fill="none" xmlns="http://www.w3.org/2000/svg">
<path d="M12.0504 26.0246L6.35219 31.7178L0.658936 26.0246L6.35219 20.3313L12.0504 26.0246ZM25.8649 12.2002L35.6212 21.9615L41.3145 16.2682L25.8649 0.818634L10.4153 16.2682L16.1085 21.9615L25.8649 12.2002ZM45.3825 20.3313L39.6892 26.0246L45.3825 31.7178L51.0708 26.0246L45.3825 20.3313ZM25.8649 39.8489L16.1085 30.0926L10.4153 35.7809L25.8649 51.2305L41.3145 35.7809L35.6212 30.0926L25.8649 39.8489ZM25.8649 31.7178L31.5581 26.0246L25.8649 20.3313L20.1716 26.0246L25.8649 31.7178ZM85.9493 32.2645V32.1857C85.9493 28.4723 83.9793 26.6156 80.7732 25.3942C82.7432 24.286 84.4078 22.5475 84.4078 19.43V19.3512C84.4078 15.0074 80.9308 12.2002 75.2819 12.2002H62.4573V39.8489H75.6069C81.8468 39.8489 85.9592 37.3224 85.9592 32.2645H85.9493ZM78.3649 20.4446C78.3649 22.4983 76.6658 23.37 73.9817 23.37H68.382V17.5339H74.3855C76.9514 17.5339 78.3747 18.5583 78.3747 20.3756L78.3649 20.4446ZM79.9064 31.506C79.9064 33.5597 78.2861 34.5053 75.5971 34.5053H68.382V28.4329H75.4099C78.5323 28.4329 79.9163 29.5804 79.9163 31.4371L79.9064 31.506ZM98.7296 39.8489V12.2002H92.6276V39.8489H98.7296ZM131.426 39.8489V12.2002H125.403V29.2258L112.451 12.2002H106.841V39.8489H112.845V22.2717L126.231 39.8489H131.426ZM165.118 39.8489L153.249 12.0032H147.639L135.795 39.8489H141.995L144.532 33.6484H156.224L158.75 39.8489H165.118ZM154.061 28.2753H146.694L150.368 19.3118L154.061 28.2753ZM194.111 39.8489V12.2002H188.088V29.2258L175.13 12.2002H169.526V39.8489H175.524V22.2717L188.915 39.8489H194.111ZM225.508 35.3869L221.642 31.4765C219.47 33.4465 217.534 34.7122 214.372 34.7122C209.635 34.7122 206.355 30.7722 206.355 26.0246V25.9458C206.355 21.208 209.713 17.3369 214.372 17.3369C217.135 17.3369 219.297 18.5189 221.445 20.4544L225.301 15.9924C222.735 13.4659 219.618 11.7274 214.402 11.7274C205.911 11.7274 199.987 18.1643 199.987 26.0098V26.0886C199.987 34.0276 206.03 40.3069 214.166 40.3069C219.49 40.3217 222.646 38.4256 225.488 35.3869H225.508ZM251.462 39.8489V34.4315H236.431V28.6151H249.468V23.1976H236.431V17.6127H251.246V12.1953H230.388V39.844L251.462 39.8489Z" fill="#989898"/>
</svg>
