<svg width="155" height="63" viewBox="0 0 155 63" fill="none" xmlns="http://www.w3.org/2000/svg">
<path d="M12.5945 13.0851C11.8846 12.5779 11.1068 12.3411 9.78818 12.2734C9.1795 12.2396 8.84161 12.2396 8.33438 12.2396C8.19919 12.2396 8.13169 12.3073 8.13169 12.4763V20.4893C8.13169 22.7209 8.23313 23.2959 9.31489 23.7352C10.2277 24.1072 11.0053 24.141 11.783 24.141C13.3046 24.141 15.8741 23.3292 15.8741 19.8129C15.8741 17.7167 15.1642 14.8768 12.5945 13.0851ZM8.13169 10.3802C8.13169 10.6508 8.23313 10.7183 8.36833 10.7521C8.67267 10.82 9.1797 10.8535 9.95752 10.8535C11.0732 10.8535 11.8171 10.7185 12.3916 10.2113C13.2707 9.50118 13.7779 8.28422 13.7779 6.62754C13.7779 4.36198 12.4593 1.38669 9.55154 1.38669C9.07825 1.38669 8.77392 1.38669 8.43583 1.45438C8.19899 1.52208 8.13149 1.65728 8.13149 2.02911V10.3802H8.13169ZM4.07424 9.80532C4.07424 4.66612 4.07424 3.71936 4.00655 2.6374C3.93885 1.48813 3.66846 0.946959 2.55275 0.710317C2.28236 0.642818 1.70744 0.608871 1.23415 0.608871C0.862316 0.608871 0.659424 0.541175 0.659424 0.304534C0.659424 0.0678922 0.896065 0.000392441 1.40329 0C3.19518 0 5.32535 0.101642 6.00152 0.101642C7.65821 0.101642 8.977 0 10.1265 0.000392441C16.2462 0.000392441 17.3281 3.27982 17.3281 5.0719C17.3281 7.8443 15.7389 9.50079 13.8794 10.9887C16.652 11.9351 20.0328 14.336 20.0328 18.2918C20.0328 21.9098 17.2265 25.6625 11.0053 25.6625C10.5997 25.6625 9.61923 25.5948 8.63852 25.5608C7.62426 25.4933 6.61 25.4594 6.10277 25.4594C5.73074 25.4594 4.98687 25.4594 4.17549 25.4933C3.39787 25.4933 2.519 25.5608 1.84263 25.5608C1.4031 25.5608 1.16626 25.4594 1.16626 25.2227C1.16626 25.0538 1.30165 24.9522 1.70744 24.9522C2.21447 24.9522 2.62025 24.8847 2.92459 24.8172C3.60076 24.6818 3.76991 23.9381 3.9051 22.9574C4.07405 21.5375 4.07405 18.8662 4.07405 15.7557V9.80532H4.07424ZM24.5959 12.1384C24.5959 7.7768 24.6299 6.96523 24.5622 6.05222C24.4945 5.03796 24.2241 4.76756 23.2773 4.49698C23.0407 4.42908 22.5335 4.39553 22.1279 4.39553C21.7896 4.39553 21.6208 4.29389 21.6208 4.09119C21.6208 3.8883 21.8235 3.8206 22.2631 3.8206C23.8523 3.8206 25.847 3.8883 26.7259 3.8883C27.47 3.8883 29.4648 3.8206 30.5467 3.8206C30.9862 3.8206 31.1889 3.8883 31.1889 4.09119C31.1889 4.29389 31.02 4.39553 30.7159 4.39553C30.3776 4.39553 30.2086 4.42928 29.837 4.49698C29.0592 4.63217 28.8225 5.03796 28.7546 6.05222C28.6871 6.96503 28.6871 7.7768 28.6871 12.1384V16.1619C28.6871 20.3543 29.4985 21.9773 30.9523 23.1267C32.2709 24.1751 33.6911 24.2762 34.7056 24.2762C35.9901 24.2762 37.5117 23.9043 38.695 22.7547C40.3516 21.1994 40.4193 18.6974 40.4193 15.7559V12.1384C40.4193 7.7768 40.3856 6.96523 40.3516 6.05222C40.2839 5.0719 40.0473 4.76756 39.1007 4.49698C38.8641 4.42908 38.3569 4.39553 38.0186 4.39553C37.6805 4.39553 37.5115 4.29389 37.5115 4.09119C37.5115 3.8883 37.7144 3.8206 38.1202 3.8206C39.6417 3.8206 41.6365 3.8883 41.6702 3.8883C42.0087 3.8883 44.0035 3.8206 45.1528 3.8206C45.5585 3.8206 45.7616 3.8883 45.7616 4.09119C45.7616 4.29389 45.5925 4.39553 45.2544 4.39553C44.9163 4.39553 44.7472 4.42928 44.3753 4.49698C43.5638 4.63217 43.3613 5.03796 43.2934 6.05222C43.2596 6.96503 43.2257 7.7768 43.2257 12.1384V15.2151C43.2257 18.427 42.8876 21.8083 40.3856 23.8706C38.2892 25.6287 36.024 25.9329 34.0967 25.9329C32.5413 25.9329 29.4648 25.8654 27.3008 23.972C25.7793 22.6532 24.5957 20.5235 24.5957 16.3648V12.1384H24.5959ZM48.533 25.189C48.0596 24.9863 47.9583 24.8507 47.9583 24.2085C47.9583 22.653 48.0933 20.8614 48.1271 20.3881C48.1271 19.9485 48.2623 19.644 48.4991 19.644C48.7697 19.644 48.8034 19.9146 48.8034 20.1175C48.8034 20.4893 48.9049 21.0978 49.074 21.605C49.7164 23.735 51.9479 24.4453 53.8076 24.4453C56.3771 24.4453 57.9324 22.8224 57.9324 20.7939C57.9324 19.5428 57.6278 18.2918 54.9908 16.7364L53.2665 15.722C49.7502 13.6597 48.6007 11.7322 48.6007 9.19665C48.6007 5.68038 51.9818 3.41502 56.1066 3.41502C58.0336 3.41502 59.5555 3.68561 60.3329 3.8883C60.6035 3.9558 60.7385 4.05725 60.7385 4.26033C60.7385 4.63237 60.6373 5.44374 60.6373 7.7091C60.6373 8.31758 60.5019 8.62172 60.2652 8.62172C60.0624 8.62172 59.9611 8.45278 59.9611 8.11469C59.9611 7.8441 59.8257 6.96503 59.1833 6.22116C58.7438 5.68038 57.7974 4.86901 55.8697 4.86901C53.7399 4.86901 51.8125 5.98452 51.8125 7.94555C51.8125 9.23059 52.2858 10.2447 54.9567 11.7324L56.1741 12.4084C60.0959 14.5725 61.3133 16.7702 61.3133 19.3736C61.3133 21.5034 60.5015 23.2282 58.3378 24.7495C56.9177 25.7639 54.9567 25.9325 53.3677 25.9325C51.6437 25.9327 49.8177 25.7641 48.533 25.189ZM66.3169 12.1384C66.3169 7.7768 66.3169 6.96523 66.2833 6.05222C66.2156 5.0719 65.9113 4.73362 65.2689 4.53073C64.9308 4.42908 64.5587 4.39573 64.1869 4.39573C63.8828 4.39573 63.7134 4.32803 63.7134 4.05744C63.7134 3.8885 63.9501 3.8208 64.4235 3.8208C65.5395 3.8208 67.5678 3.8885 68.4131 3.8885C69.1572 3.8885 71.0842 3.8208 72.2339 3.8208C72.6057 3.8208 72.8426 3.8885 72.8426 4.05744C72.8426 4.32803 72.6736 4.39573 72.3691 4.39573C72.0649 4.39573 71.8283 4.42928 71.4902 4.49717C70.6787 4.63237 70.442 5.03815 70.3743 6.05241C70.3068 6.96523 70.3068 7.77699 70.3068 12.1386V17.2101C70.3068 19.9825 70.3068 22.2818 70.4418 23.4991C70.5433 24.2766 70.7463 24.7161 71.6252 24.8513C72.0308 24.9192 72.7072 24.9529 73.1467 24.9529C73.4848 24.9529 73.62 25.1219 73.62 25.2575C73.62 25.4602 73.3834 25.5616 73.0451 25.5616C71.0842 25.5616 69.0555 25.4602 68.2439 25.4602C67.5678 25.4602 65.5393 25.5616 64.3559 25.5616C63.9838 25.5616 63.7811 25.4602 63.7811 25.2575C63.7811 25.1221 63.8826 24.9529 64.2544 24.9529C64.6939 24.9529 65.032 24.9192 65.3024 24.8513C65.9111 24.7163 66.0802 24.3105 66.1815 23.4654C66.3165 22.282 66.3165 19.9827 66.3165 17.2103V12.1384H66.3169ZM80.5171 21.639C80.5846 23.8704 80.9567 24.5466 81.5314 24.7497C82.0386 24.9186 82.6134 24.9524 83.0866 24.9524C83.4247 24.9524 83.5939 25.0877 83.5939 25.2569C83.5939 25.4935 83.3233 25.561 82.9177 25.561C80.9906 25.561 79.6039 25.4596 79.0631 25.4596C78.7928 25.4596 77.3727 25.561 75.8512 25.561C75.4454 25.561 75.175 25.5275 75.175 25.2569C75.175 25.0879 75.3779 24.9524 75.6483 24.9524C76.0541 24.9524 76.5949 24.9186 77.0011 24.8174C77.7785 24.6145 77.8799 23.8366 77.9137 21.3346L78.1843 4.29408C78.1843 3.71935 78.387 3.31357 78.6915 3.31357C79.0633 3.31357 79.4691 3.7531 79.9762 4.26033C80.3482 4.63237 84.8112 9.19665 89.1387 13.423C91.1676 15.4178 95.1234 19.4753 95.5629 19.8808H95.6981L95.3934 7.10023C95.36 5.3421 95.0894 4.83487 94.3797 4.56448C93.9402 4.39553 93.2297 4.39553 92.8241 4.39553C92.4522 4.39553 92.3506 4.26033 92.3506 4.09119C92.3506 3.85455 92.6549 3.8206 93.0945 3.8206C94.6499 3.8206 96.2389 3.8883 96.8815 3.8883C97.2196 3.8883 98.3351 3.8206 99.7891 3.8206C100.195 3.8206 100.465 3.85435 100.465 4.09119C100.465 4.26014 100.296 4.39553 99.958 4.39553C99.6535 4.39553 99.4171 4.39553 99.045 4.49698C98.2335 4.73362 97.997 5.24085 97.9631 6.86378L97.625 24.9863C97.625 25.6285 97.3883 25.8991 97.1515 25.8991C96.6445 25.8991 96.2389 25.5948 95.9344 25.2902C94.0746 23.5661 90.3554 20.016 87.2453 17.0068C83.9995 13.8961 80.855 10.4134 80.2799 9.90638H80.1787L80.5171 21.639ZM105.671 12.1384C105.671 7.7768 105.671 6.96523 105.637 6.05222C105.57 5.0719 105.299 4.76756 104.352 4.49698C104.116 4.42908 103.609 4.39553 103.169 4.39553C102.865 4.39553 102.662 4.29389 102.662 4.09119C102.662 3.8883 102.899 3.8206 103.338 3.8206C104.893 3.8206 106.787 3.8883 107.632 3.8883C108.579 3.8883 115.172 3.92185 115.747 3.8883C116.287 3.85435 116.761 3.7531 116.997 3.71936C117.167 3.68561 117.336 3.58416 117.471 3.58416C117.64 3.58416 117.674 3.71935 117.674 3.85455C117.674 4.05744 117.505 4.39573 117.437 5.71433C117.403 6.01866 117.335 7.26976 117.268 7.60766C117.234 7.74266 117.167 8.08094 116.93 8.08094C116.727 8.08094 116.693 7.94574 116.693 7.7091C116.693 7.50621 116.659 6.99898 116.49 6.6607C116.253 6.15366 116.017 5.74808 114.529 5.61268C114.022 5.54479 110.472 5.47749 109.863 5.47749C109.728 5.47749 109.661 5.57893 109.661 5.74808V12.8481C109.661 13.0173 109.694 13.1526 109.863 13.1526C110.54 13.1526 114.394 13.1526 115.07 13.0851C115.78 13.0173 116.22 12.9498 116.49 12.6456C116.727 12.4425 116.828 12.2736 116.964 12.2736C117.099 12.2736 117.201 12.4088 117.201 12.5781C117.201 12.7471 117.132 13.2203 116.964 14.6743C116.896 15.2493 116.828 16.3987 116.828 16.6014C116.828 16.8381 116.795 17.2438 116.524 17.2438C116.321 17.2438 116.253 17.1422 116.253 17.0072C116.22 16.7027 116.22 16.331 116.152 15.9588C115.983 15.3841 115.611 14.9445 114.495 14.8433C113.954 14.7754 110.573 14.7079 109.83 14.7079C109.694 14.7079 109.661 14.8433 109.661 15.0124V17.3115C109.661 18.292 109.627 20.7264 109.661 21.5715C109.728 23.5325 110.641 23.972 113.684 23.972C114.462 23.972 115.713 23.9383 116.491 23.6C117.234 23.2619 117.572 22.6534 117.775 21.4702C117.843 21.1657 117.91 21.0307 118.114 21.0307C118.35 21.0307 118.384 21.4027 118.384 21.7067C118.384 22.3491 118.147 24.3103 117.978 24.885C117.775 25.6287 117.505 25.6287 116.389 25.6287C114.158 25.6287 112.366 25.595 110.912 25.5275C109.458 25.4935 108.342 25.4596 107.463 25.4596C107.125 25.4596 106.483 25.4935 105.773 25.4935C105.063 25.5275 104.319 25.561 103.71 25.561C103.338 25.561 103.135 25.4596 103.135 25.2569C103.135 25.1215 103.237 24.9524 103.609 24.9524C104.048 24.9524 104.386 24.9186 104.657 24.8507C105.266 24.7157 105.434 24.1749 105.536 23.3292C105.671 22.1123 105.671 19.8469 105.671 17.2095V12.1384ZM122.102 25.189C121.629 24.9863 121.527 24.8507 121.527 24.2085C121.527 22.653 121.662 20.8614 121.696 20.3881C121.696 19.9485 121.831 19.644 122.068 19.644C122.339 19.644 122.372 19.9146 122.372 20.1175C122.372 20.4893 122.474 21.0978 122.643 21.605C123.285 23.735 125.517 24.4453 127.376 24.4453C129.946 24.4453 131.501 22.8224 131.501 20.7939C131.501 19.5428 131.197 18.2918 128.56 16.7364L126.836 15.722C123.319 13.6597 122.169 11.7322 122.169 9.19665C122.169 5.68038 125.551 3.41502 129.676 3.41502C131.603 3.41502 133.124 3.68561 133.902 3.8883C134.172 3.9558 134.308 4.05725 134.308 4.26033C134.308 4.63237 134.206 5.44374 134.206 7.7091C134.206 8.31758 134.071 8.62172 133.834 8.62172C133.631 8.62172 133.53 8.45278 133.53 8.11469C133.53 7.8441 133.395 6.96503 132.752 6.22116C132.313 5.68038 131.366 4.86901 129.439 4.86901C127.309 4.86901 125.381 5.98452 125.381 7.94555C125.381 9.23059 125.855 10.2447 128.526 11.7324L129.743 12.4084C133.665 14.5725 134.882 16.7702 134.882 19.3736C134.882 21.5034 134.07 23.2282 131.907 24.7495C130.487 25.7639 128.526 25.9325 126.936 25.9325C125.212 25.9327 123.387 25.7641 122.102 25.189ZM138.939 25.189C138.466 24.9863 138.364 24.8507 138.364 24.2085C138.364 22.653 138.499 20.8614 138.533 20.3881C138.533 19.9485 138.668 19.644 138.905 19.644C139.176 19.644 139.209 19.9146 139.209 20.1175C139.209 20.4893 139.311 21.0978 139.48 21.605C140.122 23.735 142.354 24.4453 144.213 24.4453C146.783 24.4453 148.338 22.8224 148.338 20.7939C148.338 19.5428 148.034 18.2918 145.397 16.7364L143.673 15.722C140.156 13.6597 139.007 11.7322 139.007 9.19665C139.007 5.68038 142.388 3.41502 146.512 3.41502C148.44 3.41502 149.961 3.68561 150.739 3.8883C151.009 3.9558 151.144 4.05725 151.144 4.26033C151.144 4.63237 151.043 5.44374 151.043 7.7091C151.043 8.31758 150.908 8.62172 150.671 8.62172C150.468 8.62172 150.367 8.45278 150.367 8.11469C150.367 7.8441 150.231 6.96503 149.589 6.22116C149.149 5.68038 148.203 4.86901 146.276 4.86901C144.146 4.86901 142.218 5.98452 142.218 7.94555C142.218 9.23059 142.691 10.2447 145.363 11.7324L146.58 12.4084C150.502 14.5725 151.719 16.7702 151.719 19.3736C151.719 21.5034 150.907 23.2282 148.743 24.7495C147.324 25.7639 145.363 25.9325 143.773 25.9325C142.049 25.9327 140.224 25.7641 138.939 25.189ZM5.45995 45.9216C5.45995 40.7822 5.45995 39.8357 5.39226 38.7539C5.32456 37.604 4.98647 37.0295 4.2428 36.8604C3.87076 36.7587 3.43123 36.725 3.02564 36.725C2.68736 36.725 2.48466 36.6575 2.48466 36.3873C2.48466 36.1842 2.75506 36.1165 3.29604 36.1165C4.58089 36.1165 6.71086 36.2181 7.69137 36.2181C8.53669 36.2181 10.5315 36.1165 11.8161 36.1165C12.2556 36.1165 12.5262 36.1842 12.5262 36.3873C12.5262 36.6575 12.3233 36.725 11.9853 36.725C11.647 36.725 11.3766 36.7589 10.9708 36.827C10.058 36.9956 9.78739 37.5707 9.71989 38.7541C9.6522 39.8361 9.6522 40.7824 9.6522 45.9218V51.8722C9.6522 55.1518 9.6522 57.8232 9.7872 59.2768C9.88884 60.1896 10.1255 60.7981 11.1399 60.9335C11.6132 61.0009 12.3571 61.0685 12.8641 61.0685C13.2362 61.0685 13.4051 61.1701 13.4051 61.339C13.4051 61.5757 13.1347 61.6771 12.7629 61.6771C10.5313 61.6771 8.40129 61.5757 7.48828 61.5757C6.71066 61.5757 4.58069 61.6771 3.22814 61.6771C2.78881 61.6771 2.55197 61.5757 2.55197 61.339C2.55197 61.1701 2.68716 61.0685 3.09295 61.0685C3.60018 61.0685 4.00596 61.0008 4.3103 60.9335C4.98628 60.7981 5.18917 60.2233 5.29081 59.2428C5.45976 57.8232 5.45976 55.1516 5.45976 51.8722V45.9216H5.45995ZM22.6691 57.7553C22.7368 59.9867 23.1086 60.6629 23.6835 60.866C24.1905 61.0349 24.7655 61.0686 25.2388 61.0686C25.5768 61.0686 25.746 61.2038 25.746 61.3732C25.746 61.6098 25.4756 61.6773 25.0698 61.6773C23.1427 61.6773 21.7564 61.5759 21.2153 61.5759C20.9449 61.5759 19.5248 61.6773 18.0033 61.6773C17.5975 61.6773 17.3272 61.6434 17.3272 61.3732C17.3272 61.204 17.53 61.0686 17.8004 61.0686C18.2062 61.0686 18.7472 61.0349 19.153 60.9337C19.9306 60.7308 20.0321 59.9533 20.0658 57.4511L20.3364 40.4106C20.3364 39.8359 20.5391 39.4303 20.8434 39.4303C21.2155 39.4303 21.621 39.8696 22.1283 40.3766C22.5003 40.7487 26.9633 45.313 31.291 49.5393C33.3197 51.5341 37.2755 55.5914 37.715 55.9971H37.85L37.5459 43.2165C37.5119 41.4584 37.2415 40.9514 36.5314 40.6806C36.0919 40.512 35.382 40.512 34.976 40.512C34.6042 40.512 34.5027 40.3766 34.5027 40.2075C34.5027 39.9709 34.8072 39.9369 35.2466 39.9369C36.802 39.9369 38.391 40.0048 39.0334 40.0048C39.3717 40.0048 40.4872 39.9369 41.9414 39.9369C42.347 39.9369 42.6174 39.9709 42.6174 40.2075C42.6174 40.3764 42.4482 40.512 42.1102 40.512C41.8056 40.512 41.5692 40.512 41.1972 40.6133C40.3858 40.8501 40.1491 41.3573 40.1152 42.9801L39.7769 61.1026C39.7769 61.7448 39.5405 62.0154 39.3038 62.0154C38.7966 62.0154 38.391 61.7113 38.0865 61.4065C36.2271 59.6824 32.5077 56.1323 29.3973 53.1231C26.1516 50.0126 23.0071 46.5299 22.4322 46.0229H22.3308L22.6691 57.7553ZM49.0399 61.3055C48.5668 61.1026 48.4651 60.967 48.4651 60.3248C48.4651 58.7695 48.6003 56.9778 48.6341 56.5044C48.6341 56.065 48.7693 55.7605 49.0061 55.7605C49.2765 55.7605 49.3105 56.0309 49.3105 56.2338C49.3105 56.6058 49.4119 57.2145 49.5809 57.7215C50.2231 59.8515 52.4547 60.5614 54.3145 60.5614C56.884 60.5614 58.4392 58.9387 58.4392 56.91C58.4392 55.6592 58.1349 54.4081 55.4979 52.8529L53.7733 51.8386C50.257 49.7758 49.1076 47.8489 49.1076 45.313C49.1076 41.7967 52.4884 39.5313 56.6134 39.5313C58.5407 39.5313 60.0622 39.8017 60.8398 40.0048C61.1104 40.0725 61.2456 40.1737 61.2456 40.3766C61.2456 40.7487 61.1439 41.5598 61.1439 43.8254C61.1439 44.4341 61.0089 44.738 60.7719 44.738C60.5692 44.738 60.4675 44.5691 60.4675 44.231C60.4675 43.9606 60.3326 43.0817 59.6899 42.3377C59.2504 41.7967 58.3038 40.9853 56.3766 40.9853C54.2466 40.9853 52.3193 42.101 52.3193 44.062C52.3193 45.3469 52.7926 46.3614 55.4633 47.8489L56.6807 48.5251C60.6027 50.6888 61.8197 52.8867 61.8197 55.4899C61.8197 57.6201 61.0083 59.3445 58.8446 60.8658C57.4246 61.88 55.4633 62.0492 53.8744 62.0492C52.151 62.0494 50.3249 61.8802 49.0399 61.3055ZM69.664 48.2543C69.664 43.8927 69.664 43.0817 69.6304 42.1685C69.5627 41.1882 69.2584 40.8499 68.616 40.647C68.2779 40.5456 67.9059 40.512 67.534 40.512C67.2295 40.512 67.0605 40.4441 67.0605 40.1737C67.0605 40.0048 67.2972 39.9369 67.7707 39.9369C68.8866 39.9369 70.9149 40.0048 71.7602 40.0048C72.5043 40.0048 74.4312 39.9369 75.581 39.9369C75.9529 39.9369 76.1897 40.0048 76.1897 40.1737C76.1897 40.4441 76.0207 40.512 75.7162 40.512C75.4121 40.512 75.1754 40.5458 74.8373 40.6133C74.0258 40.7487 73.7891 41.1545 73.7214 42.1687C73.6539 43.0817 73.6539 43.8929 73.6539 48.2545V53.3264C73.6539 56.099 73.6539 58.3981 73.7889 59.6152C73.8904 60.3931 74.0935 60.8324 74.9723 60.9674C75.3779 61.0353 76.0543 61.069 76.4938 61.069C76.8319 61.069 76.9669 61.238 76.9669 61.3736C76.9669 61.5763 76.7305 61.6777 76.3922 61.6777C74.4312 61.6777 72.4026 61.5763 71.5911 61.5763C70.9149 61.5763 68.8864 61.6777 67.703 61.6777C67.3309 61.6777 67.128 61.5763 67.128 61.3736C67.128 61.2382 67.2295 61.069 67.6015 61.069C68.0411 61.069 68.379 61.0353 68.6495 60.9674C69.2582 60.8324 69.4274 60.4266 69.5286 59.5815C69.6636 58.3983 69.6636 56.0992 69.6636 53.3266V48.2543H69.664ZM88.8343 51.4325C88.8343 54.4757 88.8681 56.6733 88.902 57.248C88.9356 57.9582 89.0039 58.9724 89.2401 59.2768C89.6121 59.8177 90.7953 60.4262 93.1282 60.4262C95.8329 60.4262 97.8279 59.9531 99.62 58.4652C101.547 56.8762 102.156 54.3065 102.156 51.3314C102.156 47.68 100.702 45.313 99.3833 44.1637C96.6445 41.7292 93.3988 41.425 91.0659 41.425C90.4569 41.425 89.4765 41.4925 89.2399 41.6277C88.9695 41.7292 88.8679 41.8646 88.8679 42.2025C88.8341 43.1832 88.8341 45.55 88.8341 47.815V51.4325H88.8343ZM84.8448 48.2543C84.8448 43.8927 84.8448 43.0817 84.8106 42.1685C84.7429 41.1882 84.4725 40.8837 83.526 40.6131C83.2891 40.5456 82.7819 40.5118 82.3426 40.5118C82.0382 40.5118 81.8355 40.4102 81.8355 40.2073C81.8355 40.0046 82.0722 39.9367 82.5117 39.9367C84.0671 39.9367 85.9603 40.0046 86.8058 40.0046C87.7184 40.0046 89.8488 39.9367 91.6409 39.9367C95.3598 39.9367 100.364 39.9367 103.61 43.2163C105.097 44.7043 106.416 47.1046 106.416 50.5198C106.416 54.1378 104.861 56.8762 103.17 58.5329C101.818 59.885 98.673 61.9138 93.1957 61.9138C92.1137 61.9138 90.8291 61.8123 89.6459 61.7446C88.4625 61.643 87.3803 61.5757 86.6367 61.5757C86.2984 61.5757 85.6559 61.6096 84.9462 61.6096C84.2363 61.6432 83.4922 61.6771 82.8834 61.6771C82.5117 61.6771 82.3088 61.5757 82.3088 61.373C82.3088 61.2376 82.4103 61.0685 82.7819 61.0685C83.2214 61.0685 83.5597 61.0347 83.8303 60.9668C84.439 60.8318 84.6079 60.291 84.7094 59.4455C84.8446 58.2286 84.8446 55.9632 84.8446 53.3258V48.2543H84.8448ZM114.022 48.2543C114.022 43.8927 114.022 43.0817 113.988 42.1685C113.92 41.1882 113.65 40.8837 112.703 40.6131C112.467 40.5456 111.959 40.5118 111.52 40.5118C111.216 40.5118 111.013 40.4102 111.013 40.2073C111.013 40.0046 111.25 39.9367 111.689 39.9367C113.245 39.9367 115.138 40.0046 115.983 40.0046C116.93 40.0046 123.523 40.0382 124.098 40.0046C124.639 39.9707 125.112 39.8694 125.349 39.8357C125.518 39.8015 125.687 39.7003 125.822 39.7003C125.991 39.7003 126.025 39.8357 126.025 39.9709C126.025 40.1737 125.856 40.512 125.788 41.8306C125.755 42.1348 125.686 43.3859 125.619 43.7238C125.585 43.859 125.518 44.1972 125.281 44.1972C125.078 44.1972 125.044 44.062 125.044 43.8252C125.044 43.6225 125.01 43.1153 124.842 42.777C124.605 42.27 124.368 41.8644 122.881 41.7288C122.373 41.6611 118.823 41.5938 118.215 41.5938C118.08 41.5938 118.012 41.695 118.012 41.8644V48.9646C118.012 49.1336 118.046 49.2687 118.215 49.2687C118.891 49.2687 122.745 49.2687 123.422 49.2012C124.131 49.1336 124.571 49.0661 124.842 48.7619C125.078 48.559 125.18 48.3899 125.315 48.3899C125.45 48.3899 125.552 48.5251 125.552 48.694C125.552 48.8632 125.484 49.3363 125.315 50.7904C125.247 51.3654 125.18 52.5148 125.18 52.7177C125.18 52.9542 125.146 53.3601 124.876 53.3601C124.673 53.3601 124.605 53.2587 124.605 53.1233C124.571 52.8192 124.571 52.4473 124.503 52.0753C124.334 51.5004 123.962 51.0608 122.847 50.9594C122.306 50.8917 118.925 50.8242 118.181 50.8242C118.046 50.8242 118.012 50.9594 118.012 51.1285V53.4276C118.012 54.4081 117.978 56.8425 118.012 57.6878C118.08 59.6486 118.992 60.0881 122.036 60.0881C122.813 60.0881 124.064 60.0544 124.842 59.7161C125.586 59.3784 125.924 58.7695 126.126 57.5863C126.194 57.282 126.262 57.147 126.465 57.147C126.701 57.147 126.735 57.5188 126.735 57.8232C126.735 58.465 126.499 60.4262 126.329 61.0008C126.127 61.7446 125.856 61.7446 124.741 61.7446C122.509 61.7446 120.717 61.7111 119.263 61.643C117.809 61.6094 116.693 61.5755 115.815 61.5755C115.476 61.5755 114.834 61.6094 114.124 61.6094C113.414 61.643 112.67 61.6769 112.061 61.6769C111.69 61.6769 111.487 61.5755 111.487 61.3728C111.487 61.2374 111.588 61.0683 111.96 61.0683C112.399 61.0683 112.738 61.0345 113.008 60.9666C113.617 60.8316 113.786 60.2908 113.887 59.4453C114.022 58.2286 114.022 55.9632 114.022 53.3258L114.022 48.2543ZM138.027 50.4861C138.027 50.7902 138.095 50.8917 138.298 50.9931C138.94 51.1962 139.819 51.2637 140.563 51.2637C141.746 51.2637 142.152 51.1623 142.659 50.7902C143.572 50.148 144.586 48.8969 144.586 46.5301C144.586 42.4729 141.814 41.4248 140.055 41.4248C139.312 41.4248 138.602 41.4584 138.298 41.5263C138.095 41.594 138.027 41.695 138.027 41.9319V50.4861ZM134.24 48.2543C134.24 43.8927 134.24 43.0817 134.206 42.1685C134.139 41.1882 133.868 40.8837 132.921 40.6131C132.685 40.5456 132.178 40.5118 131.738 40.5118C131.434 40.5118 131.231 40.4102 131.231 40.2073C131.231 40.0046 131.468 39.9367 131.907 39.9367C133.462 39.9367 135.356 40.0046 135.964 40.0046C136.979 40.0046 139.684 39.9367 140.596 39.9367C142.49 39.9367 144.654 40.106 146.243 41.1541C147.088 41.7288 148.339 43.1828 148.339 45.1099C148.339 47.24 147.122 49.1334 144.214 51.4662C146.852 54.7119 148.948 57.3157 150.74 59.1074C152.397 60.7639 153.445 60.8993 153.918 61.0006C154.222 61.0683 154.391 61.0683 154.628 61.0683C154.865 61.0683 155 61.2372 155 61.3728C155 61.6094 154.797 61.6769 154.425 61.6769H151.585C149.928 61.6769 149.117 61.508 148.339 61.1022C147.054 60.46 145.939 59.1074 144.282 56.876C143.098 55.3206 141.848 53.3933 141.476 52.9538C141.307 52.7848 141.137 52.7511 140.934 52.7511L138.264 52.6836C138.128 52.6836 138.027 52.7511 138.027 52.9202V53.3258C138.027 55.9967 138.06 58.2284 138.196 59.4455C138.297 60.291 138.433 60.8318 139.345 60.9668C139.785 61.0347 140.427 61.0685 140.799 61.0685C141.036 61.0685 141.171 61.2374 141.171 61.373C141.171 61.5757 140.934 61.6771 140.563 61.6771C138.838 61.6771 136.37 61.5757 135.931 61.5757C135.356 61.5757 133.462 61.6771 132.279 61.6771C131.907 61.6771 131.704 61.5757 131.704 61.373C131.704 61.2376 131.806 61.0685 132.178 61.0685C132.617 61.0685 132.955 61.0347 133.226 60.9668C133.834 60.8318 134.003 60.291 134.104 59.4455C134.24 58.2286 134.24 55.9632 134.24 53.3258V48.2543" fill="#989898"/>
</svg>
