<svg width="206" height="46" viewBox="0 0 206 46" fill="none" xmlns="http://www.w3.org/2000/svg">
<path fill-rule="evenodd" clip-rule="evenodd" d="M106.52 0.66272H100.149V43.2627C103.022 44.2621 106.645 45.1366 110.893 45.1366C121.511 45.1366 127.633 38.8902 127.633 29.7706C127.633 20.651 121.387 15.2791 113.141 15.2791C110.643 15.2791 108.019 16.0287 106.645 16.6533L106.52 0.66272ZM60.7972 3.16125C58.6734 3.16125 56.7995 4.91022 56.7995 7.03397C56.7995 9.28265 58.6734 11.1565 60.7972 11.1565C62.9209 11.1565 64.7948 9.40757 64.7948 7.03397C64.7948 4.91022 62.9209 3.16125 60.7972 3.16125ZM21.0705 38.7653C19.6963 39.265 18.1972 39.6398 16.5732 39.6398C10.9515 39.6398 7.07877 36.0169 7.07877 30.3952C7.07877 24.3988 11.0764 21.1507 16.3233 21.1507C17.8224 21.1507 19.3216 21.4005 20.8207 22.0251C21.4453 20.4011 22.4447 18.7771 23.5691 17.4029C21.1955 16.1536 18.8219 15.529 15.8236 15.529C7.45355 15.529 0.70752 21.2756 0.70752 30.5202C0.70752 39.6398 7.07877 45.3864 15.8236 45.3864C18.8219 45.3864 21.4453 44.7618 24.0688 43.3876C22.8195 41.8885 21.8201 40.3893 21.0705 38.7653ZM38.6852 15.2791C47.3051 15.2791 53.5514 21.4005 53.5514 30.2703C53.5514 39.1401 47.3051 45.1366 38.6852 45.1366C30.1902 45.1366 23.9438 39.0152 23.9438 30.2703C23.8189 21.4005 30.0652 15.2791 38.6852 15.2791ZM30.3151 30.2703C30.3151 24.5237 33.813 20.7759 38.5602 20.7759C43.4324 20.7759 46.9303 24.3988 46.9303 30.2703C46.9303 36.0169 43.5573 39.6398 38.5602 39.6398C33.813 39.6398 30.3151 36.0169 30.3151 30.2703ZM57.5491 44.5119H63.9203V15.9038H57.5491V44.5119ZM69.542 17.7776C73.5397 16.2785 78.5367 15.2791 82.6593 15.2791C90.03 15.2791 94.6522 18.0275 94.6522 26.1477V44.5119H88.281V26.6474C88.281 22.5249 85.6575 21.0257 82.1596 21.0257C79.9109 21.0257 77.6622 21.4005 75.9133 21.9002V44.5119H69.542V17.7776ZM106.52 39.1401C107.77 39.5149 109.394 39.7647 111.018 39.7647C116.889 39.7647 121.137 36.5166 121.137 29.8955C121.137 24.3988 117.139 21.0257 112.267 21.0257C109.768 21.0257 107.77 21.6504 106.52 22.3999V39.1401ZM140.625 20.7759C143.748 20.7759 146.122 22.1501 146.122 25.2732V27.6468H142.999C134.754 27.6468 129.757 30.5202 129.757 36.2668C129.757 42.7629 135.253 45.0116 142.624 45.0116C145.872 45.0116 149.745 44.5119 152.493 43.8873V25.0234C152.493 17.9026 147.996 15.2791 141.75 15.2791C138.127 15.2791 135.003 16.1536 132.38 17.6527V23.1495C134.629 21.7753 137.252 20.7759 140.625 20.7759ZM146.122 32.0193H143.374C138.876 32.0193 136.003 33.2685 136.003 36.2668C136.003 39.265 138.751 40.3893 142.624 40.3893C143.623 40.3893 144.998 40.2644 146.122 40.0146V32.0193ZM165.735 40.0146C162.862 40.0146 159.614 38.7653 156.991 36.7665V42.8879C159.114 44.2621 162.487 45.2615 165.86 45.2615C172.107 45.2615 176.729 42.5131 176.729 36.5166C176.729 31.3946 173.856 28.8961 167.359 27.5219C164.111 26.6474 162.862 25.648 162.862 23.7741C162.862 21.9002 164.361 20.526 167.11 20.526C170.108 20.526 172.606 21.6504 175.105 23.3993V17.5278C172.731 16.0287 170.108 15.2791 166.86 15.2791C160.988 15.2791 156.616 18.1524 156.616 23.899C156.616 28.8961 159.114 31.2697 165.111 32.6439C168.859 33.6433 170.483 34.3929 170.483 36.7665C170.483 39.0152 168.609 40.0146 165.735 40.0146ZM185.474 31.6445V31.7694C185.849 36.8914 190.221 39.6398 194.718 39.6398C198.716 39.6398 201.464 38.7653 204.338 36.8914V42.5131C201.714 44.2621 197.966 45.1366 194.219 45.1366C185.224 45.1366 179.227 39.5149 179.227 30.3952C179.227 21.2756 185.224 15.2791 193.094 15.2791C201.464 15.2791 205.462 20.651 205.462 28.3964V31.6445H185.474ZM192.969 20.651C197.092 20.651 199.341 23.1495 199.466 27.5219H185.724C186.598 23.2744 189.222 20.651 192.969 20.651Z" fill="#989898"/>
</svg>
