<svg width="45" height="33" viewBox="0 0 45 33" fill="none" xmlns="http://www.w3.org/2000/svg">
<path d="M38.7583 4.47565C33.3404 0.421892 28.1501 0.535453 28.1501 0.535453L27.6195 1.14142C34.0604 3.07382 37.0535 5.91518 37.0535 5.91518C27.8387 0.841695 16.101 0.877998 6.51626 5.91518C6.51626 5.91518 9.6229 2.9221 16.4426 0.989697L16.0638 0.534988C16.0638 0.534988 10.9112 0.421426 5.45559 4.47518C5.45559 4.47518 0 14.288 0 26.3739C0 26.3739 3.1825 31.8294 11.5558 32.0947C11.5558 32.0947 12.9576 30.4276 14.0941 28.9881C9.28222 27.5486 7.46385 24.5555 7.46385 24.5555C10.4867 26.4469 13.5436 27.6309 17.3525 28.3821C23.55 29.6578 31.2586 28.3463 37.0158 24.5555C37.0158 24.5555 35.1216 27.6244 30.1584 29.0262C31.2949 30.4281 32.659 32.057 32.659 32.057C41.0314 31.7922 44.2139 26.3366 44.2139 26.3743C44.2139 14.2884 38.7583 4.47565 38.7583 4.47565ZM15.0408 22.8511C12.919 22.8511 11.1765 20.9946 11.1765 18.6834C11.3314 13.1486 18.7892 13.1659 18.9056 18.6834C18.9051 20.9946 17.2003 22.8511 15.0408 22.8511ZM28.8696 22.8511C26.7478 22.8511 25.0053 20.9946 25.0053 18.6834C25.1757 13.1593 32.5404 13.157 32.7344 18.6834C32.734 20.9946 31.0292 22.8511 28.8696 22.8511Z" fill="#7B61FF"/>
</svg>
