<svg width="39" height="39" viewBox="0 0 39 39" fill="none" xmlns="http://www.w3.org/2000/svg">
<g clip-path="url(#clip0_192_794)">
<path d="M34.1273 0.000244141H5.15531C2.49149 0.000244141 0.32664 2.1651 0.32664 4.82892V33.8009C0.32664 36.4632 2.49149 38.6296 5.15531 38.6296H34.1273C36.7895 38.6296 38.956 36.4632 38.956 33.8009V4.82892C38.956 2.1651 36.7895 0.000244141 34.1273 0.000244141Z" fill="#7B61FF"/>
<path d="M26.8843 19.3151V14.4864C26.8843 13.1537 27.966 13.2792 29.2987 13.2792H31.713V7.24341H26.8843C22.883 7.24341 19.6413 10.4851 19.6413 14.4864V19.3151H14.8127V25.3509H19.6413V38.6298H26.8843V25.3509H30.5058L32.9202 19.3151H26.8843Z" fill="white"/>
</g>
<defs>
<clipPath id="clip0_192_794">
<rect width="38.6294" height="38.6294" fill="white" transform="translate(0.32666)"/>
</clipPath>
</defs>
</svg>
