<svg width="172" height="46" viewBox="0 0 172 46" fill="none" xmlns="http://www.w3.org/2000/svg">
<path fill-rule="evenodd" clip-rule="evenodd" d="M156.014 45.3136C153.813 45.0777 150.309 44.3105 149.143 43.8092L148.573 43.5642L148.495 40.7415C148.453 39.1888 148.403 37.1129 148.386 36.1284L148.354 34.3379L148.696 34.1742C148.883 34.0844 149.262 34.0004 149.538 33.9875L150.039 33.9641L150.466 35.0145C152.13 39.112 154.083 41.3216 156.633 41.9934C157.606 42.2498 159.43 42.2522 160.15 41.9977C162.167 41.2853 163.274 39.758 163.283 37.6715C163.295 35.2002 161.936 34.0128 156.805 32.0079C153.625 30.7661 152.516 30.1268 151.196 28.7751C149.771 27.317 149.087 25.6573 148.959 23.3455C148.804 20.5519 149.678 18.1971 151.615 16.1904C153.565 14.1708 156.096 13.0765 159.543 12.7618C162.579 12.4849 167.24 13.1285 169.682 14.1627L170.127 14.3513L170.207 16.8674C170.25 18.2511 170.296 20.106 170.307 20.9898L170.328 22.5959L169.73 22.8179C168.784 23.1693 168.722 23.1249 168.196 21.7312C166.721 17.8233 165.007 15.9741 162.337 15.4093C160.71 15.0655 159.351 15.4355 158.363 16.4917C157.592 17.3158 157.292 18.0472 157.219 19.2762C157.139 20.6073 157.378 21.3268 158.191 22.2173C159.193 23.314 160.836 24.2613 164.108 25.6287C168.116 27.3031 170.028 28.725 171.068 30.8029C171.743 32.1526 171.934 33.2302 171.866 35.3052C171.815 36.8622 171.765 37.1821 171.411 38.2273C170.256 41.6353 167.65 43.8793 163.622 44.9312C162.258 45.2873 162.063 45.306 159.351 45.3356C157.788 45.3528 156.286 45.3427 156.014 45.3136ZM102.757 44.9603C106.51 44.3974 109.264 43.1083 111.596 40.8222C114.966 37.5178 116.589 32.854 116.37 27.1064C116.257 24.1472 115.774 22.214 114.547 19.8157C112.886 16.5666 110.044 14.2882 106.817 13.6169C104.397 13.1137 101.282 13.5076 98.9144 14.6177C98.3243 14.8936 97.7595 15.12 97.6592 15.12C97.5002 15.12 97.483 14.2052 97.5231 7.9128L97.5699 0.70517L97.0739 0.804476C96.8012 0.859383 94.0205 1.37742 90.8942 1.95609C87.7678 2.53477 85.0879 3.03657 84.9389 3.0719C84.7126 3.1249 84.673 3.21132 84.6973 3.59805C84.7241 4.02919 84.7599 4.06835 85.2154 4.16861C86.7819 4.51333 87.0607 4.63604 87.6432 5.23763C88.3565 5.97482 88.6788 6.91588 88.8903 8.88012C89.0588 10.4452 89.0961 37.4103 88.9352 41.3909L88.8402 43.7509L90.114 44.0231C94.9339 45.0539 99.7385 45.411 102.757 44.9603ZM136.797 44.9565C139.659 44.4919 142.479 43.1178 144.505 41.1989C145.615 40.148 145.983 39.6405 145.829 39.3751C145.417 38.666 145.435 38.6665 144.383 39.313C142.708 40.3414 141.869 40.625 139.902 40.827C137.604 41.0628 135.484 40.6785 133.525 39.6715C132.226 39.0036 130.668 37.4667 129.89 36.0844C128.828 34.198 128.252 31.9951 128.08 29.1633C128.008 27.9744 128.024 27.6779 128.163 27.5896C128.258 27.5294 132.379 27.4798 137.387 27.4788L146.438 27.4769V27.1193C146.438 26.3067 146.171 24.1219 145.932 22.9769C144.971 18.3714 142.432 15.0875 138.813 13.7669C137.372 13.2407 136.009 13.0196 134.213 13.0196C129.957 13.0196 126.481 14.4157 123.792 17.2045C121.648 19.4285 120.376 21.9265 119.6 25.4382C119.366 26.4962 119.327 27.0463 119.327 29.2688C119.327 31.4746 119.367 32.0438 119.594 33.0641C121.035 39.545 125.298 43.813 131.425 44.9063C132.977 45.1833 135.264 45.2047 136.797 44.9565ZM49.1901 44.7956C51.3825 44.2837 53.1305 43.5022 54.6927 42.3353C58.4933 39.4968 60.5754 35.1453 60.7678 29.6393C60.9574 24.2116 59.3202 19.5851 56.1552 16.602C53.586 14.1803 50.3479 13.0196 46.1626 13.0196C41.7261 13.0196 38.1528 14.3952 35.4041 17.1615C32.4596 20.1251 30.9017 24.2589 30.9017 29.1108C30.9017 34.1441 32.3092 38.2072 35.0379 41.0538C36.5428 42.6232 38.0077 43.5647 40.1075 44.3119C40.8504 44.5759 41.3966 44.7029 43.3823 45.072C43.5523 45.1035 44.692 45.1093 45.9152 45.0849C47.5644 45.052 48.4004 44.9784 49.1901 44.7956ZM25.3002 30.3808L25.0142 29.2067C24.4762 27.0014 23.4406 25.4224 22.1605 24.8562C21.5699 24.595 20.1075 24.446 17.2785 24.3601L15.9503 24.32V27.1088C15.9503 30.1483 16.1174 34.2601 16.3313 36.4912C16.6302 39.6023 17.4251 41.3211 18.8527 41.9433C19.1253 42.0622 19.9876 42.255 20.7692 42.372C21.5508 42.489 22.2875 42.6351 22.4064 42.6962C22.7081 42.8523 22.7258 44.4633 22.4274 44.5779C22.1935 44.6676 0.387215 44.6609 0.164245 44.5712C0.0615923 44.5296 0.0100283 44.2217 0.0100283 43.6516C0.0100283 42.6275 -0.0553856 42.6733 1.92509 42.3061C3.44435 42.024 3.98769 41.7361 4.65851 40.8566C5.95909 39.1511 6.24031 35.8682 6.24318 22.3491C6.24604 9.65264 6.00111 6.98225 4.65612 5.01991C4.05931 4.14904 3.05379 3.67636 1.36933 3.47487L0.0716187 3.31922L0.0358075 2.30655L0 1.29339L0.406789 1.22129C0.630237 1.18119 8.48529 1.16448 17.862 1.18358L34.9109 1.21891L34.9911 1.71307C35.035 1.98474 35.1071 4.77307 35.1511 7.90946L35.2317 13.6117L34.3527 13.8786C33.0293 14.2806 33.0374 14.2854 32.4425 12.7107C30.98 8.84193 29.3037 6.61269 27.0095 5.48734C25.4272 4.71052 24.6958 4.61694 20.2273 4.61694H16.3384L16.2716 5.2658C16.146 6.48188 15.9474 14.3078 15.9488 17.9933L15.9503 21.6692L17.0933 21.6625C17.7221 21.6592 18.9616 21.6128 19.8477 21.5598C21.1803 21.4801 21.5766 21.4094 22.1338 21.1516C23.5036 20.5176 24.4356 19.122 25.0066 16.8493L25.3012 15.6762L27.3184 15.6046V30.4524L25.3002 30.3808ZM61.0772 44.5478C60.9646 44.4762 60.9278 44.1911 60.9536 43.5914L60.9908 42.7378L61.4234 42.6456C61.6612 42.595 62.172 42.4942 62.5588 42.4222C63.7553 42.1987 64.4428 41.5489 64.8295 40.2774C65.1447 39.2409 65.2836 35.9259 65.2908 29.2688C65.2998 21.1268 65.1303 19.2041 64.3067 18.1141C63.8608 17.5235 63.539 17.3554 62.4566 17.1477C61.9223 17.045 61.3599 16.9352 61.2071 16.9032C60.9593 16.8517 60.9287 16.771 60.9287 16.1656C60.9287 15.5769 60.9665 15.4704 61.2071 15.3711C61.5767 15.2193 73.8181 12.7723 74.2091 12.7723H74.5142L74.4545 14.5948C74.4216 15.5974 74.3686 17.057 74.3375 17.8386L74.2803 19.2595L74.7238 18.4597C76.1433 15.8996 77.7356 14.3107 79.8526 13.3405C81.0147 12.8077 81.7901 12.6487 83.2258 12.6487C84.9289 12.6487 86.631 13.2044 86.631 13.7602C86.631 14.134 83.6312 22.0612 83.4655 22.1247C83.3848 22.1557 82.799 21.9313 82.164 21.6267C80.839 20.9907 79.5962 20.6799 78.3897 20.6828C76.8867 20.6861 75.2084 21.239 74.5457 21.9499C74.2626 22.2541 74.2611 22.2722 74.1905 26.8123C74.1208 31.3085 74.2707 36.7925 74.5233 38.9983C74.7391 40.8771 75.238 41.8024 76.2693 42.2331C76.6136 42.3768 78.7898 42.6747 79.5002 42.6757C79.5542 42.6757 79.5819 43.1068 79.5618 43.6335L79.526 44.5912L70.3818 44.6208C65.4058 44.6366 61.2544 44.6046 61.0772 44.5478ZM47.1876 42.8571C48.0628 42.5974 49.1428 41.5847 49.7182 40.4842C50.9065 38.212 51.4375 34.8517 51.4503 29.5156C51.4671 22.8289 50.4186 18.5734 48.2061 16.3456C47.2769 15.4102 46.618 15.1195 45.4301 15.1214C42.7936 15.1257 41.1202 17.8782 40.4589 23.2978C40.1552 25.7891 40.1533 31.7243 40.456 33.9025C41.3928 40.6436 43.8106 43.8602 47.1876 42.8571ZM100.728 42.7974C101.625 42.6275 102.322 42.2703 103.072 41.5971C104.948 39.9098 106.359 36.4263 106.914 32.1106C107.14 30.3531 107.109 26.3477 106.859 24.8805C106.181 20.9124 104.725 18.3046 102.601 17.2547C101.72 16.8192 101.584 16.7882 100.539 16.7882C99.7915 16.7882 99.1489 16.8684 98.6022 17.0293L97.7838 17.2704L97.7232 21.7866C97.6458 27.5719 97.834 42.0555 97.992 42.4713C98.0928 42.7363 98.204 42.7927 98.7044 42.8318C99.8746 42.924 100.074 42.9211 100.728 42.7974ZM135.181 25.0524L137.331 24.9774L137.253 23.4506C136.98 18.0654 135.663 15.1228 133.525 15.1247C131.202 15.1276 129.346 18.1141 128.574 23.0901C128.479 23.7017 128.4 24.4274 128.399 24.7024L128.397 25.2019L130.714 25.1646C131.988 25.1441 133.998 25.0935 135.181 25.0524Z" fill="#989898"/>
</svg>
