<svg width="35" height="36" viewBox="0 0 35 36" fill="none" xmlns="http://www.w3.org/2000/svg">
<g clip-path="url(#clip0_192_797)">
<path d="M8.94537 35.6441C7.59523 35.629 6.25779 35.3814 4.99175 34.9121C4.06723 34.5703 3.23077 34.0263 2.54353 33.3198C1.83507 32.6339 1.29023 31.7972 0.949489 30.8719C0.480568 29.6059 0.233293 28.2686 0.218515 26.9186C0.114824 24.6743 0.0939484 24.0012 0.0939484 18.3146C0.0939484 12.628 0.116877 11.9573 0.217488 9.71129C0.234059 8.36185 0.481639 7.02522 0.949489 5.75937C1.29189 4.8347 1.83595 3.99791 2.54216 3.30979C3.22856 2.60196 4.06541 2.05763 4.99072 1.71711C6.25676 1.2478 7.59421 1.00018 8.94435 0.985112C11.1893 0.882447 11.8635 0.861572 17.547 0.861572C23.2305 0.861572 23.9043 0.884501 26.1503 0.985112C27.5001 1.00157 28.8371 1.24915 30.1032 1.71711C31.0281 2.05808 31.8648 2.60222 32.5515 3.30945C33.2589 3.99636 33.8033 4.8332 34.1445 5.75835C34.6139 7.02436 34.8616 8.36181 34.8768 9.71197C34.9795 11.9579 35.0004 12.6304 35.0004 18.3153C35.0004 24.0002 34.9795 24.6726 34.8768 26.9186C34.8605 28.2685 34.6128 29.6057 34.1445 30.8719C33.7902 31.7901 33.2476 32.624 32.5516 33.3198C31.8556 34.0157 31.0216 34.5581 30.1032 34.9121C28.8372 35.3815 27.4998 35.6292 26.1496 35.6444C23.9057 35.7471 23.2312 35.768 17.5463 35.768C11.8614 35.768 11.1889 35.7481 8.94503 35.6444" fill="url(#paint0_radial_192_797)"/>
<path d="M8.94537 35.6441C7.59523 35.629 6.25779 35.3814 4.99175 34.9121C4.06723 34.5703 3.23077 34.0263 2.54353 33.3198C1.83507 32.6339 1.29023 31.7972 0.949489 30.8719C0.480568 29.6059 0.233293 28.2686 0.218515 26.9186C0.114824 24.6743 0.0939484 24.0012 0.0939484 18.3146C0.0939484 12.628 0.116877 11.9573 0.217488 9.71129C0.234059 8.36185 0.481639 7.02522 0.949489 5.75937C1.29189 4.8347 1.83595 3.99791 2.54216 3.30979C3.22856 2.60196 4.06541 2.05763 4.99072 1.71711C6.25676 1.2478 7.59421 1.00018 8.94435 0.985112C11.1893 0.882447 11.8635 0.861572 17.547 0.861572C23.2305 0.861572 23.9043 0.884501 26.1503 0.985112C27.5001 1.00157 28.8371 1.24915 30.1032 1.71711C31.0281 2.05808 31.8648 2.60222 32.5515 3.30945C33.2589 3.99636 33.8033 4.8332 34.1445 5.75835C34.6139 7.02436 34.8616 8.36181 34.8768 9.71197C34.9795 11.9579 35.0004 12.6304 35.0004 18.3153C35.0004 24.0002 34.9795 24.6726 34.8768 26.9186C34.8605 28.2685 34.6128 29.6057 34.1445 30.8719C33.7902 31.7901 33.2476 32.624 32.5516 33.3198C31.8556 34.0157 31.0216 34.5581 30.1032 34.9121C28.8372 35.3815 27.4998 35.6292 26.1496 35.6444C23.9057 35.7471 23.2312 35.768 17.5463 35.768C11.8614 35.768 11.1889 35.7481 8.94503 35.6444" fill="url(#paint1_radial_192_797)"/>
<path d="M13.2614 18.3893C13.2615 17.5343 13.5151 16.6986 13.9901 15.9878C14.4651 15.277 15.1403 14.723 15.9302 14.396C16.72 14.0689 17.5892 13.9834 18.4277 14.1502C19.2662 14.3171 20.0363 14.7289 20.6408 15.3335C21.2452 15.9381 21.6568 16.7084 21.8235 17.5469C21.9902 18.3854 21.9045 19.2545 21.5772 20.0443C21.2499 20.8342 20.6958 21.5092 19.9849 21.984C19.2739 22.4589 18.4382 22.7123 17.5833 22.7122C16.4369 22.712 15.3376 22.2564 14.5271 21.4457C13.7166 20.6351 13.2613 19.5356 13.2614 18.3893ZM10.9244 18.3893C10.9244 19.7063 11.3149 20.9937 12.0466 22.0887C12.7783 23.1838 13.8183 24.0373 15.035 24.5413C16.2518 25.0452 17.5906 25.1771 18.8823 24.9202C20.174 24.6632 21.3605 24.029 22.2918 23.0978C23.223 22.1665 23.8572 20.9801 24.1141 19.6884C24.3711 18.3967 24.2392 17.0578 23.7352 15.841C23.2312 14.6243 22.3777 13.5843 21.2827 12.8527C20.1877 12.121 18.9002 11.7304 17.5833 11.7304C16.7088 11.7304 15.8429 11.9026 15.035 12.2372C14.2271 12.5718 13.493 13.0623 12.8746 13.6807C12.2563 14.299 11.7658 15.0331 11.4312 15.841C11.0966 16.6489 10.9244 17.5148 10.9244 18.3893ZM22.9495 11.4666C22.9494 11.7743 23.0405 12.0752 23.2114 12.3312C23.3823 12.5872 23.6252 12.7867 23.9095 12.9046C24.1938 13.0225 24.5066 13.0535 24.8085 12.9936C25.1104 12.9337 25.3877 12.7856 25.6054 12.5681C25.8231 12.3505 25.9714 12.0733 26.0316 11.7715C26.0918 11.4697 26.0611 11.1568 25.9435 10.8724C25.8258 10.588 25.6265 10.3449 25.3707 10.1738C25.1148 10.0027 24.814 9.91135 24.5063 9.91122C24.0938 9.9114 23.6982 10.0753 23.4064 10.3669C23.1147 10.6586 22.9506 11.0541 22.9502 11.4666H22.9495ZM12.3449 28.9449C11.5226 28.9359 10.708 28.7854 9.93676 28.5001C9.37744 28.2845 8.86945 27.9542 8.4455 27.5304C8.02154 27.1066 7.69102 26.5988 7.4752 26.0395C7.18972 25.2683 7.03923 24.4537 7.03032 23.6313C6.96736 22.2645 6.95504 21.8539 6.95504 18.391C6.95504 14.9281 6.96873 14.5185 7.03032 13.1503C7.0403 12.3281 7.19076 11.5136 7.4752 10.7421C7.69077 10.1826 8.0212 9.6745 8.44517 9.25052C8.86915 8.82655 9.37726 8.49612 9.93676 8.28055C10.708 7.99507 11.5226 7.84458 12.3449 7.83567C13.7118 7.77271 14.1224 7.76039 17.5839 7.76039C21.0454 7.76039 21.4564 7.77373 22.8246 7.83602C23.6468 7.84599 24.4613 7.99645 25.2328 8.2809C25.7923 8.49648 26.3004 8.82691 26.7244 9.25089C27.1484 9.67486 27.4788 10.183 27.6944 10.7425C27.9798 11.5137 28.1303 12.3283 28.1392 13.1506C28.2022 14.5195 28.2145 14.9281 28.2145 18.3913C28.2145 21.8546 28.2019 22.2639 28.1392 23.632C28.1297 24.4543 27.9792 25.2688 27.6944 26.0402C27.4785 26.5994 27.148 27.1073 26.7241 27.5311C26.3001 27.9549 25.7921 28.2852 25.2328 28.5007C24.4616 28.7862 23.6469 28.9367 22.8246 28.9456C21.4578 29.0086 21.0472 29.0209 17.5839 29.0209C14.1207 29.0209 13.7114 29.0083 12.3449 28.9456V28.9449ZM12.2375 5.50073C11.1615 5.52189 10.0969 5.72554 9.0891 6.10303C8.22757 6.43613 7.44515 6.94559 6.79201 7.59873C6.13887 8.25187 5.62941 9.03428 5.29631 9.89581C4.91887 10.9036 4.71522 11.9682 4.69402 13.0442C4.63002 14.4268 4.61565 14.8689 4.61565 18.3906C4.61565 21.9124 4.63036 22.3542 4.69402 23.7371C4.71522 24.8131 4.91887 25.8777 5.29631 26.8855C5.62943 27.747 6.13889 28.5294 6.79203 29.1825C7.44517 29.8357 8.22758 30.3451 9.0891 30.6783C10.097 31.0556 11.1615 31.2592 12.2375 31.2806C13.6207 31.3435 14.0622 31.3589 17.5839 31.3589C21.1057 31.3589 21.5475 31.3442 22.9304 31.2806C24.0064 31.2593 25.0709 31.0557 26.0788 30.6783C26.9403 30.3451 27.7227 29.8357 28.3758 29.1825C29.029 28.5294 29.5384 27.747 29.8716 26.8855C30.2495 25.8778 30.4532 24.8131 30.4739 23.7371C30.5368 22.3535 30.5512 21.9124 30.5512 18.3906C30.5512 14.8689 30.5365 14.4271 30.4739 13.0442C30.4527 11.9682 30.249 10.9036 29.8716 9.89581C29.5385 9.03445 29.0291 8.25215 28.3762 7.59903C27.7232 6.94591 26.9411 6.43636 26.0798 6.10303C25.072 5.7253 24.0074 5.52164 22.9314 5.50073C21.5485 5.43742 21.1067 5.42236 17.5856 5.42236C14.0646 5.42236 13.6217 5.43708 12.2382 5.50073" fill="white"/>
</g>
<defs>
<radialGradient id="paint0_radial_192_797" cx="0" cy="0" r="1" gradientUnits="userSpaceOnUse" gradientTransform="translate(2.35292 35.0031) scale(44.3177)">
<stop offset="0.09" stop-color="#7B61FF"/>
<stop offset="0.78" stop-color="#7B61FF"/>
</radialGradient>
<radialGradient id="paint1_radial_192_797" cx="0" cy="0" r="1" gradientUnits="userSpaceOnUse" gradientTransform="translate(24.2722 33.882) scale(39)">
<stop offset="0.64" stop-color="#7B61FF"/>
<stop offset="1" stop-color="#7B61FF"/>
</radialGradient>
<clipPath id="clip0_192_797">
<rect width="34.9061" height="34.9061" fill="white" transform="translate(0.0939331 0.861572)"/>
</clipPath>
</defs>
</svg>
