<svg width="40" height="39" viewBox="0 0 40 39" fill="none" xmlns="http://www.w3.org/2000/svg">
<path d="M0.152588 4.74024C0.152588 3.46177 0.600058 2.40705 1.49496 1.57608C2.38986 0.745073 3.55328 0.32959 4.98513 0.32959C6.39144 0.32959 7.52923 0.738668 8.39859 1.5569C9.29349 2.40068 9.74096 3.50012 9.74096 4.8553C9.74096 6.08262 9.3063 7.10535 8.43694 7.92358C7.54204 8.76736 6.36586 9.18925 4.90842 9.18925H4.87007C3.46376 9.18925 2.32597 8.76736 1.45661 7.92358C0.587248 7.07981 0.152588 6.01868 0.152588 4.74024ZM0.651183 38.2996V12.6794H9.16566V38.2996H0.651183ZM13.8831 38.2996H22.3976V23.9937C22.3976 23.0988 22.4999 22.4084 22.7045 21.9226C23.0624 21.0533 23.6058 20.3181 24.3345 19.7173C25.0632 19.1164 25.9773 18.816 27.0767 18.816C29.9405 18.816 31.3723 20.7464 31.3723 24.6074V38.2996H39.8868V23.6102C39.8868 19.8259 38.9919 16.9558 37.2021 14.9998C35.4122 13.0438 33.0471 12.0658 30.1067 12.0658C26.8083 12.0658 24.2386 13.4848 22.3976 16.323V16.3997H22.3593L22.3976 16.323V12.6794H13.8831C13.9343 13.4976 13.9599 16.0417 13.9599 20.3118C13.9599 24.5818 13.9343 30.5777 13.8831 38.2996Z" fill="#7B61FF"/>
</svg>
