<svg width="38" height="30" viewBox="0 0 38 30" fill="none" xmlns="http://www.w3.org/2000/svg">
<path d="M34.1085 4.2867L37.0146 1.5065V0.897949H26.947L19.7719 18.7568L11.6089 0.897949H1.0526V1.5065L4.44742 5.59333C4.77825 5.89533 4.95126 6.33695 4.90725 6.7816V22.8421C5.01196 23.4203 4.82378 24.0152 4.41707 24.4356L0.592773 29.0703V29.6712H11.4359V29.0627L7.61157 24.4356C7.19727 24.0137 7.0015 23.4294 7.08497 22.8421V8.95022L16.6032 29.6788H17.7095L25.8938 8.95022V25.463C25.8938 25.8985 25.8938 25.9881 25.6085 26.2734L22.6644 29.1219V29.7319H36.9479V29.1234L34.11 26.3447C33.8611 26.1565 33.7321 25.8409 33.7852 25.5343V5.09709C33.7321 4.78902 33.8596 4.47336 34.1085 4.2867Z" fill="#7B61FF"/>
</svg>
