<svg width="254" height="56" viewBox="0 0 254 56" fill="none" xmlns="http://www.w3.org/2000/svg">
<path d="M99.2253 17.921C100.78 18.8609 102.096 20.1532 102.933 21.9154C103.89 23.6776 104.368 25.7923 104.368 28.142C104.368 30.4915 103.89 32.4888 102.813 34.2509C101.856 36.0131 100.421 37.3055 98.6273 38.1279C96.8332 39.0677 94.6803 39.5377 92.408 39.5377C91.0923 39.5377 89.8962 39.3025 88.7003 38.8328C87.5042 38.4804 86.4278 37.7755 85.5908 36.9531V49.1711H78.6538V16.9811H84.634L85.2319 19.5657C87.863 17.4511 90.7335 16.3937 93.7234 16.3937C95.7569 16.3937 97.6705 16.8637 99.2253 17.921ZM95.398 32.4888C96.5939 31.4315 97.1921 30.0215 97.1921 28.2593C97.1921 26.4972 96.5939 25.0874 95.5175 23.9126C94.4412 22.7377 93.006 22.2678 91.4512 22.2678C90.1355 22.2678 88.9394 22.5028 87.9826 23.0902C87.026 23.5601 86.3083 24.3825 85.7103 25.4399V30.7266C86.0692 31.7839 86.7867 32.6061 87.6239 33.1936C88.5808 33.7809 89.6571 34.1334 90.9728 34.1334C92.7666 34.1334 94.2019 33.5461 95.398 32.4888ZM108.434 22.0303C109.511 20.3856 110.946 18.9758 112.859 18.036C114.773 17.0961 116.926 16.5087 119.318 16.5087C121.71 16.5087 123.863 16.9787 125.776 18.036C127.57 18.9758 129.005 20.3856 130.082 22.1478C131.158 23.9101 131.637 25.7898 131.637 28.022C131.637 30.2541 131.158 32.1339 130.082 33.896C129.005 35.6582 127.69 37.0679 125.776 38.0079C123.982 38.9476 121.71 39.5352 119.318 39.5352C116.926 39.5352 114.773 39.0652 112.859 38.1252C110.946 37.1855 109.511 35.8931 108.434 34.1309C107.477 32.3687 106.879 30.3715 106.879 28.022C106.879 25.7898 107.477 23.7926 108.434 22.0303ZM115.491 32.2512C116.447 33.426 117.763 33.896 119.318 33.896C120.873 33.896 122.188 33.3085 123.145 32.2512C124.102 31.1939 124.58 29.6666 124.58 28.022C124.58 26.2596 124.102 24.8499 123.145 23.7926C122.068 22.6178 120.873 22.0303 119.198 22.0303C117.643 22.0303 116.447 22.6178 115.371 23.6751C114.414 24.8499 113.936 26.2596 113.936 28.022C113.936 29.6666 114.414 31.0763 115.491 32.2512ZM142.88 0.297637V38.9491H135.944V0.297637H142.88ZM171.344 17.567L157.231 49.2869H150.534L155.796 37.8913L145.75 17.567H153.644L159.384 30.2549L165.125 17.567H171.344ZM197.895 17.5661V38.9476C197.895 40.9449 197.297 42.8246 196.101 44.4692C194.905 46.1141 193.35 47.4065 191.317 48.3462C189.283 49.286 187.131 49.756 184.739 49.756C182.945 49.756 181.39 49.5211 180.074 49.1686C178.759 48.6987 177.682 48.2287 176.845 47.7589C175.888 47.1714 174.932 46.4665 173.855 45.5268L177.922 40.8273C178.878 41.7673 179.955 42.4722 180.911 42.9422C181.868 43.4119 183.184 43.7644 184.619 43.7644C186.413 43.7644 187.848 43.2946 189.044 42.4722C190.24 41.6498 190.838 40.3576 190.838 38.8303V35.7757C190.121 36.833 189.164 37.7728 187.729 38.4779C186.294 39.1827 184.619 39.5352 182.706 39.5352C180.792 39.5352 178.878 39.0652 177.204 38.0079C175.529 37.0679 174.214 35.6582 173.137 33.896C172.181 32.1339 171.583 30.2541 171.583 28.1393C171.583 26.0247 172.061 24.0276 173.137 22.2653C174.214 20.5031 175.529 19.0933 177.324 18.036C178.998 16.9787 180.792 16.5087 182.706 16.5087C184.499 16.5087 186.054 16.7437 187.49 17.2136C188.925 17.6836 190.001 18.3884 190.719 19.2108L191.436 17.5661H197.895ZM190.838 30.7239V25.4374C190.36 24.38 189.642 23.5576 188.566 22.9702C187.49 22.3828 186.294 22.0304 184.858 22.0304C183.184 22.0304 181.749 22.6178 180.553 23.6751C179.357 24.7324 178.759 26.1423 178.759 27.9044C178.759 29.5493 179.357 31.0766 180.553 32.2512C181.749 33.426 183.184 34.0136 184.858 34.0136C187.609 33.896 189.642 32.8387 190.838 30.7239ZM203.638 22.0328C204.714 20.2706 206.149 18.9783 208.063 17.921C209.977 16.9811 212.129 16.3937 214.521 16.3937C216.914 16.3937 219.066 16.8637 220.98 17.921C222.774 18.8609 224.209 20.2706 225.285 22.0328C226.242 23.7951 226.84 25.6747 226.84 27.9069C226.84 30.1391 226.362 32.0188 225.285 33.7809C224.329 35.5433 222.893 36.9531 220.98 37.8928C219.186 38.8328 216.914 39.4201 214.521 39.4201C212.129 39.4201 209.977 38.9501 208.063 38.0104C206.149 37.0704 204.714 35.7782 203.638 34.0161C202.561 32.2536 202.083 30.2566 202.083 27.7893C202.083 25.7923 202.561 23.7951 203.638 22.0328ZM210.575 32.2536C211.531 33.4285 212.847 33.8985 214.402 33.8985C215.957 33.8985 217.272 33.3112 218.229 32.2536C219.186 31.1964 219.664 29.6691 219.664 28.0245C219.664 26.2623 219.186 24.8524 218.229 23.7951C217.272 22.7377 215.957 22.1503 214.402 22.1503C212.847 22.1503 211.651 22.7377 210.575 23.7951C209.498 24.8524 209.02 26.3796 209.02 28.0245C209.139 29.6691 209.618 31.079 210.575 32.2536ZM251.357 18.271C252.793 19.4458 253.392 20.973 253.51 22.8527V38.9476H246.455V25.4374C246.335 23.3227 245.259 22.2653 243.225 22.2653C241.671 22.2653 240.355 22.9702 239.398 24.4975C238.442 26.0247 237.963 27.9044 237.963 30.1366V38.9476H231.026V17.5661H237.365L237.843 20.973C238.681 19.5632 239.757 18.5059 241.192 17.6836C242.627 16.8612 244.302 16.5087 246.216 16.5087C248.249 16.5087 250.043 17.0961 251.357 18.271ZM48.9931 17.2163C47.7969 16.5114 46.2422 16.5114 44.9267 17.2163L35.5977 22.6205L29.2588 26.145L19.93 31.549C18.734 32.2539 17.1792 32.2539 15.8636 31.549L8.44836 27.3196C7.25234 26.6147 6.41514 25.3226 6.41514 23.9128V15.5716C6.41514 14.1618 7.13275 12.8695 8.44836 12.1646L15.744 8.05276C16.94 7.34787 18.4948 7.34787 19.8104 8.05276L27.1061 12.1646C28.302 12.8695 29.1393 14.1618 29.1393 15.5716V20.9757L35.4781 17.3338V11.9297C35.4781 10.5199 34.7606 9.22756 33.445 8.52267L19.93 0.768901C18.734 0.0640121 17.1792 0.0640121 15.8636 0.768901L2.10951 8.52267C0.793899 9.22756 0.0762939 10.5199 0.0762939 11.9297V27.5547C0.0762939 28.9644 0.793899 30.2569 2.10951 30.9617L15.8636 38.7155C17.0596 39.4203 18.6144 39.4203 19.93 38.7155L29.2588 33.4287L35.5977 29.7869L44.9267 24.5002C46.1226 23.7953 47.6774 23.7953 48.9931 24.5002L56.2887 28.612C57.4846 29.3169 58.3219 30.6093 58.3219 32.019V40.3601C58.3219 41.7701 57.6044 43.0622 56.2887 43.7671L48.9931 47.9965C47.7969 48.7014 46.2422 48.7014 44.9267 47.9965L37.6311 43.8846C36.4349 43.1798 35.5977 41.8874 35.5977 40.4776V35.0736L29.2588 38.7155V44.1195C29.2588 45.5292 29.9766 46.8217 31.292 47.5265L45.0463 55.2803C46.2422 55.9851 47.7969 55.9851 49.1126 55.2803L62.8668 47.5265C64.0627 46.8217 64.9 45.5292 64.9 44.1195V28.4945C64.9 27.0847 64.1823 25.7926 62.8668 25.0877L48.9931 17.2163Z" fill="#989898"/>
</svg>
