<svg width="38" height="31" viewBox="0 0 38 31" fill="none" xmlns="http://www.w3.org/2000/svg">
<path d="M2.80323 1.61823C2.80323 1.61823 8.33556 9.04944 18.5177 9.57286C18.5177 9.57286 17.1316 4.15846 22.2373 1.16769C27.3429 -1.82308 31.5926 2.52858 31.5926 2.52858C31.5926 2.52858 34.2123 2.09129 36.4637 0.747632C36.4637 0.747632 35.7084 3.46808 33.188 4.9469C33.188 4.9469 35.9084 4.55997 37.4549 3.80466C37.4549 3.80466 35.9098 6.29057 33.7432 7.68458C33.7432 7.68458 34.684 23.3553 19.701 29.1341C9.31084 33.1413 0.351776 27.1186 0.351776 27.1186C0.351776 27.1186 5.52501 28.1933 11.4376 23.9609C11.4376 23.9609 6.7017 24.1954 4.34963 18.5531C4.34963 18.5531 5.96229 18.9904 7.77637 18.4524C7.77637 18.4524 2.06514 17.6468 1.72989 10.894C1.72989 10.894 3.77851 11.8348 5.05592 11.8004C5.05459 11.8004 -0.354507 7.92973 2.80323 1.61823Z" fill="#7B61FF"/>
</svg>
