<svg width="39" height="31" viewBox="0 0 39 31" fill="none" xmlns="http://www.w3.org/2000/svg">
<path d="M37.2228 5.39855C37.0612 4.77166 36.7528 4.19219 36.3231 3.70796C35.8934 3.22372 35.3547 2.84861 34.7515 2.61357C28.9128 0.369918 19.6144 0.388635 19.1067 0.391297C18.5994 0.387221 9.30078 0.369829 3.46203 2.61357C2.85883 2.8486 2.32017 3.22369 1.89048 3.70789C1.4608 4.19209 1.15241 4.77153 0.990761 5.39839C0.550015 7.09032 0.0247498 10.1841 0.0247498 15.3148C0.0247498 20.4454 0.550015 23.5392 0.990678 25.2311C1.1523 25.858 1.46067 26.4375 1.89036 26.9217C2.32005 27.4059 2.85873 27.781 3.46195 28.0161C9.05129 30.164 17.8112 30.2387 18.9945 30.2387C19.1002 30.2388 19.1132 30.2388 19.219 30.2387C20.4032 30.2386 29.1624 30.1638 34.7514 28.0161C35.3546 27.781 35.8933 27.406 36.323 26.9217C36.7527 26.4375 37.0611 25.8581 37.2227 25.2313C37.6634 23.5393 38.1887 20.4455 38.1887 15.3148C38.1887 10.1842 37.6634 7.09041 37.2228 5.39855ZM24.9367 15.8818L16.7588 21.3338C16.6561 21.4023 16.5368 21.4416 16.4136 21.4475C16.2904 21.4535 16.1679 21.4259 16.0591 21.3677C15.9504 21.3095 15.8595 21.2229 15.7961 21.117C15.7327 21.0112 15.6992 20.8902 15.6992 20.7668V9.86282C15.6992 9.73947 15.7327 9.61842 15.7961 9.51259C15.8595 9.40677 15.9504 9.32013 16.0591 9.26193C16.1679 9.20372 16.2904 9.17613 16.4136 9.18209C16.5368 9.18806 16.6561 9.22736 16.7588 9.29579L24.9367 14.7478C25.0301 14.81 25.1066 14.8943 25.1596 14.9933C25.2125 15.0922 25.2402 15.2026 25.2402 15.3148C25.2402 15.427 25.2125 15.5375 25.1596 15.6364C25.1066 15.7353 25.0301 15.8196 24.9367 15.8818Z" fill="#7B61FF"/>
</svg>
